<svg enable-background="new 0 0 695.103 227.48" height="227.48" viewBox="0 0 695.103 227.48" width="695.103" xmlns="http://www.w3.org/2000/svg"><path d="m0 0h695.103v227.48h-695.103z" fill="#ec0009"/><g fill="#fff"><path d="m146.829 158.861-30.398-57.172 14.385-7.65 30.4 57.174zm-26.504-41.127-37.069 7.205 3.109 15.994 37.068-7.207zm54.381-35.955-79.967-15.545-3.109 15.993 79.969 15.545zm-22.035-27.875c0-7.762-6.293-14.053-14.055-14.053-7.76 0-14.051 6.291-14.051 14.053s6.291 14.053 14.051 14.053c7.762 0 14.055-6.291 14.055-14.053"/><path d="m300.108 111.137-69.668 24.617h81.098v16.549h-74.432c-9.729 0-17.553-7.928-17.553-17.789 0-8.414 5.92-15.172 13.607-17.172l69.736-24.617h-79.262v-16.551h72.525c9.729 0 17.553 7.932 17.553 17.793.002 8.412-5.918 15.17-13.604 17.17m99.61 24.652h-58.055v-43.055h58.055zm16.558-37.26c0-12.35-10.006-22.355-22.355-22.355h-46.459c-12.354 0-22.357 10.006-22.357 22.355v31.463c0 12.352 10.004 22.355 22.357 22.355h46.459c12.35 0 22.355-10.004 22.355-22.355zm100.174 0c0-12.35-10.004-22.355-22.355-22.355h-64.857v76.174h16.559v-59.614h54.094v59.613h16.561v-53.818zm95.397 37.26h-66.697v-13.248h66.697v-16.559h-66.697v-13.248h66.697v-16.56h-60.902c-12.348 0-22.354 10.006-22.354 22.357v31.461c0 12.352 10.006 22.355 22.354 22.355h60.902z"/></g></svg>